<mxfile host="app.diagrams.net" modified="2024-04-23T08:00:53.576Z" agent="Mozilla/5.0 (X11; Linux x86_64) AppleWebKit/537.36 (KHTML, like Gecko) Chrome/122.0.0.0 Safari/537.36" etag="2xFmCAKBQISGlhw5nsc6" version="24.2.8" type="github">
  <diagram id="C5RBs43oDa-KdzZeNtuy" name="Page-1">
    <mxGraphModel dx="1399" dy="785" grid="1" gridSize="10" guides="1" tooltips="1" connect="1" arrows="1" fold="1" page="1" pageScale="1" pageWidth="827" pageHeight="1169" math="0" shadow="0">
      <root>
        <mxCell id="WIyWlLk6GJQsqaUBKTNV-0" />
        <mxCell id="WIyWlLk6GJQsqaUBKTNV-1" parent="WIyWlLk6GJQsqaUBKTNV-0" />
        <mxCell id="u1gGTWN9pdNOj8fxPoqh-4" value="CREACIÓN_USUARIO" style="swimlane;fontStyle=0;childLayout=stackLayout;horizontal=1;startSize=30;horizontalStack=0;resizeParent=1;resizeParentMax=0;resizeLast=0;collapsible=1;marginBottom=0;whiteSpace=wrap;html=1;fillColor=#f8cecc;strokeColor=#b85450;" vertex="1" parent="WIyWlLk6GJQsqaUBKTNV-1">
          <mxGeometry x="40" y="40" width="170" height="280" as="geometry" />
        </mxCell>
        <mxCell id="u1gGTWN9pdNOj8fxPoqh-5" value="&lt;div&gt;&lt;b&gt;PK&amp;nbsp; Id INT&lt;/b&gt;&lt;/div&gt;&lt;div&gt;&lt;b&gt;&lt;br&gt;&lt;/b&gt;&lt;/div&gt;Nombre Char&lt;div&gt;&lt;br style=&quot;padding: 0px; margin: 0px;&quot;&gt;Apellidos Char&lt;/div&gt;&lt;div&gt;&lt;br style=&quot;padding: 0px; margin: 0px;&quot;&gt;Correo Varchar&lt;/div&gt;&lt;div&gt;&lt;br style=&quot;padding: 0px; margin: 0px;&quot;&gt;Contraseña Varchar&lt;/div&gt;&lt;div&gt;&lt;br style=&quot;padding: 0px; margin: 0px;&quot;&gt;Peso INT&lt;br style=&quot;padding: 0px; margin: 0px;&quot;&gt;&lt;br&gt;&lt;/div&gt;&lt;div&gt;Altura INT&lt;div style=&quot;padding: 0px; margin: 0px;&quot;&gt;&lt;br style=&quot;padding: 0px; margin: 0px;&quot;&gt;&lt;/div&gt;&lt;div style=&quot;padding: 0px; margin: 0px;&quot;&gt;&lt;br style=&quot;padding: 0px; margin: 0px; text-wrap: nowrap;&quot;&gt;&lt;/div&gt;&lt;/div&gt;" style="text;strokeColor=none;fillColor=none;align=left;verticalAlign=middle;spacingLeft=4;spacingRight=4;overflow=hidden;points=[[0,0.5],[1,0.5]];portConstraint=eastwest;rotatable=0;whiteSpace=wrap;html=1;" vertex="1" parent="u1gGTWN9pdNOj8fxPoqh-4">
          <mxGeometry y="30" width="170" height="250" as="geometry" />
        </mxCell>
        <mxCell id="u1gGTWN9pdNOj8fxPoqh-8" value="PREGUNTA_USUARIO" style="swimlane;fontStyle=0;childLayout=stackLayout;horizontal=1;startSize=30;horizontalStack=0;resizeParent=1;resizeParentMax=0;resizeLast=0;collapsible=1;marginBottom=0;whiteSpace=wrap;html=1;fillColor=#d5e8d4;strokeColor=#82b366;" vertex="1" parent="WIyWlLk6GJQsqaUBKTNV-1">
          <mxGeometry x="280" y="40" width="150" height="180" as="geometry" />
        </mxCell>
        <mxCell id="u1gGTWN9pdNOj8fxPoqh-9" value="&lt;div&gt;&lt;b&gt;PK&amp;nbsp; Id_usuario INT&lt;/b&gt;&lt;/div&gt;&lt;div style=&quot;padding: 0px; margin: 0px;&quot;&gt;&lt;br&gt;&lt;/div&gt;&lt;div style=&quot;padding: 0px; margin: 0px;&quot;&gt;Cantidad_Ejercicio INT&lt;/div&gt;&lt;div style=&quot;padding: 0px; margin: 0px;&quot;&gt;&lt;br&gt;&lt;/div&gt;&lt;div style=&quot;padding: 0px; margin: 0px;&quot;&gt;Disponibilidad_Horaria&amp;nbsp;&lt;/div&gt;" style="text;strokeColor=none;fillColor=none;align=left;verticalAlign=middle;spacingLeft=4;spacingRight=4;overflow=hidden;points=[[0,0.5],[1,0.5]];portConstraint=eastwest;rotatable=0;whiteSpace=wrap;html=1;" vertex="1" parent="u1gGTWN9pdNOj8fxPoqh-8">
          <mxGeometry y="30" width="150" height="150" as="geometry" />
        </mxCell>
        <mxCell id="u1gGTWN9pdNOj8fxPoqh-11" value="CREACION_DE_RUTINA" style="swimlane;fontStyle=0;childLayout=stackLayout;horizontal=1;startSize=30;horizontalStack=0;resizeParent=1;resizeParentMax=0;resizeLast=0;collapsible=1;marginBottom=0;whiteSpace=wrap;html=1;fillColor=#fff2cc;strokeColor=#d6b656;" vertex="1" parent="WIyWlLk6GJQsqaUBKTNV-1">
          <mxGeometry x="520" y="40" width="180" height="180" as="geometry" />
        </mxCell>
        <mxCell id="u1gGTWN9pdNOj8fxPoqh-12" value="&lt;div&gt;&lt;b&gt;PK&amp;nbsp; Id_usuario INT&lt;/b&gt;&lt;/div&gt;&lt;div style=&quot;padding: 0px; margin: 0px;&quot;&gt;&lt;br&gt;&lt;/div&gt;&lt;div style=&quot;padding: 0px; margin: 0px;&quot;&gt;Ejercicio_X_Semana int&lt;/div&gt;&lt;div style=&quot;padding: 0px; margin: 0px;&quot;&gt;&lt;br&gt;&lt;/div&gt;&lt;div style=&quot;padding: 0px; margin: 0px;&quot;&gt;Tipo_de_Ejercicio Char&lt;/div&gt;&lt;div style=&quot;padding: 0px; margin: 0px;&quot;&gt;&lt;br&gt;&lt;/div&gt;&lt;div style=&quot;padding: 0px; margin: 0px;&quot;&gt;Intensidad_Del_Entrenamiento&lt;/div&gt;&lt;div style=&quot;padding: 0px; margin: 0px;&quot;&gt;&lt;br style=&quot;padding: 0px; margin: 0px; text-wrap: nowrap;&quot;&gt;&lt;/div&gt;" style="text;strokeColor=none;fillColor=none;align=left;verticalAlign=middle;spacingLeft=4;spacingRight=4;overflow=hidden;points=[[0,0.5],[1,0.5]];portConstraint=eastwest;rotatable=0;whiteSpace=wrap;html=1;" vertex="1" parent="u1gGTWN9pdNOj8fxPoqh-11">
          <mxGeometry y="30" width="180" height="150" as="geometry" />
        </mxCell>
        <mxCell id="u1gGTWN9pdNOj8fxPoqh-13" style="edgeStyle=orthogonalEdgeStyle;rounded=0;orthogonalLoop=1;jettySize=auto;html=1;exitX=1;exitY=0.5;exitDx=0;exitDy=0;" edge="1" parent="WIyWlLk6GJQsqaUBKTNV-1" source="u1gGTWN9pdNOj8fxPoqh-9" target="u1gGTWN9pdNOj8fxPoqh-12">
          <mxGeometry relative="1" as="geometry" />
        </mxCell>
        <mxCell id="u1gGTWN9pdNOj8fxPoqh-14" style="edgeStyle=orthogonalEdgeStyle;rounded=0;orthogonalLoop=1;jettySize=auto;html=1;exitX=1;exitY=0.5;exitDx=0;exitDy=0;entryX=0;entryY=0.5;entryDx=0;entryDy=0;" edge="1" parent="WIyWlLk6GJQsqaUBKTNV-1" source="u1gGTWN9pdNOj8fxPoqh-5" target="u1gGTWN9pdNOj8fxPoqh-9">
          <mxGeometry relative="1" as="geometry" />
        </mxCell>
        <mxCell id="u1gGTWN9pdNOj8fxPoqh-15" value="TIPOS DE EJERCICIOS" style="swimlane;fontStyle=0;childLayout=stackLayout;horizontal=1;startSize=30;horizontalStack=0;resizeParent=1;resizeParentMax=0;resizeLast=0;collapsible=1;marginBottom=0;whiteSpace=wrap;html=1;fillColor=#d5e8d4;strokeColor=#82b366;" vertex="1" parent="WIyWlLk6GJQsqaUBKTNV-1">
          <mxGeometry x="410" y="380" width="150" height="180" as="geometry" />
        </mxCell>
        <mxCell id="u1gGTWN9pdNOj8fxPoqh-16" value="&lt;div&gt;&lt;b&gt;PK&amp;nbsp; Id_usuario INT&lt;/b&gt;&lt;/div&gt;&lt;div style=&quot;padding: 0px; margin: 0px;&quot;&gt;&lt;br&gt;&lt;/div&gt;&lt;div style=&quot;padding: 0px; margin: 0px;&quot;&gt;Modalidad de Entrenamiento INT&lt;/div&gt;&lt;div style=&quot;padding: 0px; margin: 0px;&quot;&gt;&lt;br&gt;&lt;/div&gt;&lt;div style=&quot;padding: 0px; margin: 0px;&quot;&gt;Proposito_Ejercicio Char&lt;/div&gt;&lt;div style=&quot;padding: 0px; margin: 0px;&quot;&gt;&lt;br style=&quot;padding: 0px; margin: 0px; text-wrap: nowrap;&quot;&gt;&lt;/div&gt;" style="text;strokeColor=none;fillColor=none;align=left;verticalAlign=middle;spacingLeft=4;spacingRight=4;overflow=hidden;points=[[0,0.5],[1,0.5]];portConstraint=eastwest;rotatable=0;whiteSpace=wrap;html=1;" vertex="1" parent="u1gGTWN9pdNOj8fxPoqh-15">
          <mxGeometry y="30" width="150" height="150" as="geometry" />
        </mxCell>
      </root>
    </mxGraphModel>
  </diagram>
</mxfile>
